Coordinates
version=1
nRows=10
nColumns=23
inDegrees=yes

Units are S.I. units (second, meters, Newtons, ...)
If the header above contains a line with 'inDegrees', this indicates whether rotational values are in degrees (yes) or radians (no).

endheader
time	pelvis_tilt	pelvis_list	pelvis_rotation	pelvis_tx	pelvis_ty	pelvis_tz	hip_flexion_r	hip_adduction_r	hip_rotation_r	knee_angle_r	knee_angle_r_beta	ankle_angle_r	subtalar_angle_r	mtp_angle_r	hip_flexion_l	hip_adduction_l	hip_rotation_l	knee_angle_l	knee_angle_l_beta	ankle_angle_l	subtalar_angle_l	mtp_angle_l
      0.00000000	     -8.18201614	     -0.67497915	     -4.78793337	      2.37087794	      1.00058983	      1.03429150	      8.98230850	      3.88348102	      1.82099003	     37.51357565	      0.65473541	     25.89461609	      4.94308583	      0.00000000	     41.56850642	     -6.34707408	     -0.55236337	    114.12789574	      1.99190755	    -10.29105743	    -12.74905070	      0.00000000
      0.00666667	     -8.43743244	      0.05928294	     -4.64728658	      2.37312056	      1.00518503	      1.03488406	      6.44922345	      2.88159452	      1.60427009	     35.30905014	      0.61625918	     23.45367126	      5.35955582	      0.00000000	     43.59244877	     -5.87488377	     -1.47712471	    111.76223519	      1.95061898	     -9.47930778	    -14.07207371	      0.00000000
      0.01333333	     -8.63281730	      0.92157883	     -4.53007645	      2.37546095	      1.00970380	      1.03553045	      3.78113639	      1.81797940	      1.55229366	     32.83338916	      0.57305075	     20.53489289	      5.39455961	      0.00000000	     45.30245318	     -5.29860624	     -2.54114940	    109.20282965	      1.90594893	     -8.49604398	    -15.18402356	      0.00000000
      0.02000000	     -8.83088807	      1.83812244	     -4.37091059	      2.37796410	      1.01403460	      1.03612594	      1.09039352	      0.73867703	      1.49543174	     30.17619729	      0.52667400	     17.19647355	      5.08826072	      0.00000000	     46.79499040	     -4.64904450	     -3.65142261	    106.46744585	      1.85820748	     -7.50439153	    -16.13109270	      0.00000000
      0.02666667	     -9.04805925	      2.79994133	     -4.12185483	      2.38055425	      1.01816176	      1.03650832	     -1.51995692	     -0.40658380	      1.14268208	     27.51232783	      0.48018071	     13.55387386	      4.91558882	      0.00000000	     48.12335420	     -3.86866639	     -4.75436656	    103.54289679	      1.80716447	     -6.63285487	    -17.04717057	      0.00000000
      0.03333333	     -9.32742277	      3.69102713	     -3.84794241	      2.38322470	      1.02210332	      1.03680713	     -3.98532433	     -1.41748671	      0.75786369	     24.87643483	      0.43417569	      9.52597861	      4.43679574	      0.00000000	     49.32881009	     -3.15784170	     -5.84149099	    100.42525808	      1.75275141	     -5.89675521	    -17.73469248	      0.00000000
      0.04000000	     -9.65796398	      4.49892994	     -3.43250080	      2.38595509	      1.02580308	      1.03680338	     -6.23946491	     -2.36440598	     -0.16465297	     22.48180645	      0.39238154	      5.35742316	      4.31503922	      0.00000000	     50.42571391	     -2.39203790	     -6.79855401	     97.11533830	      1.69498241	     -5.31871945	    -18.31909657	      0.00000000
      0.04666667	    -10.17958020	      5.12113734	     -2.88067450	      2.38861885	      1.02910556	      1.03652822	     -8.06272923	     -3.10590941	     -1.56925123	     20.49256783	      0.35766278	      1.11706181	      4.34337784	      0.00000000	     51.58111215	     -1.66830827	     -7.55439549	     93.63035191	      1.63415792	     -4.82447574	    -18.56633541	      0.00000000
      0.05333333	    -10.50667515	      5.61438465	     -2.31020583	      2.39131308	      1.03247390	      1.03620120	     -9.91512800	     -3.67044226	     -3.11636211	     18.81282443	      0.32834573	     -3.11599027	      4.30584024	      0.00000000	     52.31506077	     -1.04257130	     -8.27234741	     89.92209800	      1.56943668	     -4.38560644	    -18.63163801	      0.00000000
      0.06000000	    -10.81470617	      5.91393414	     -1.76158616	      2.39394033	      1.03570977	      1.03579590	    -11.54501954	     -4.00763614	     -4.75703471	     17.58276047	      0.30687706	     -7.15626792	      4.20402250	      0.00000000	     52.83633414	     -0.55992966	     -8.88205931	     86.00945100	      1.50114811	     -3.93026965	    -18.38530113	      0.00000000
